<svg xmlns="http://www.w3.org/2000/svg"><defs><font id="AdvoCutRegular" horiz-adv-x="1024"><font-face units-per-em="2048" ascent="1638" descent="-410"/><glyph horiz-adv-x="819"/><glyph horiz-adv-x="819"/><glyph horiz-adv-x="819"/><glyph unicode="!" horiz-adv-x="409" d="M0 0h205v205H0V0zm0 410h205v1024H0V410z"/><glyph unicode="&quot;" horiz-adv-x="819" d="M0 1024h205v410H0v-410zm410 0h204v410H410v-410z"/><glyph unicode="#" horiz-adv-x="208"/><glyph unicode="$" d="M0 205h205v-410h409v410H205v205H0V205zm0 614h205V614h409V205h205v409H614v205H205v410H0V819zm205 410h409v-205h205v205H614v409H205v-409z"/><glyph unicode="%" horiz-adv-x="819" d="M0 0h205v410H0V0zm0 1229h205v205H0v-205zm205-819h205v614H205V410zM410 0h204v205H410V0zm0 1024h204v410H410v-410z"/><glyph unicode="&amp;" d="M0 205h205V0h205v205H205v409H0V205zm0 614h205V614h205V205h204V0h205v205H614v205h205v204H410v205H205v410H0V819zm205 410h205V819h204v410H410v205H205v-205z"/><glyph unicode="'" horiz-adv-x="409" d="M0 1024v410h205v-410H0z"/><glyph unicode="(" horiz-adv-x="614" d="M0 205h205V0h205v205H205v1024H0V205zm205 1024h205v205H205v-205z"/><glyph unicode=")" horiz-adv-x="614" d="M0 0v205h205v1024h205V205H205V0H0zm0 1229v205h205v-205H0z"/><glyph unicode="*" horiz-adv-x="819" d="M0 614h205v205H0V614zm0 410h205V819h205V614h204v205H410v205H205v205H0v-205zm410 0h204v205H410v-205z"/><glyph unicode="+" horiz-adv-x="819" d="M0 614h205V410h205v204h204v205H410v205H205V819H0V614z"/><glyph unicode="," horiz-adv-x="409" d="M0-205h205v410H0v-410z"/><glyph unicode="-" horiz-adv-x="614" d="M0 614h410v205H0V614z"/><glyph unicode="." horiz-adv-x="409" d="M0 0h205v205H0V0z"/><glyph unicode="/" horiz-adv-x="819" d="M0 0h205v410H0V0zm205 410h205v614H205V410zm205 614h204v410H410v-410z"/><glyph unicode="0" d="M0 205h205V0h409v205H205v1024H0V205zm205 1024h409V205h205v1024H614v205H205v-205z"/><glyph unicode="1" horiz-adv-x="614" d="M0 1024h205V0h205v1434H205v-205H0v-205z"/><glyph unicode="2" d="M0 0h819v205H205v205H0V0zm0 1024h205v205H0v-205zm205-614h205v204H205V410zm0 819h409V819h205v410H614v205H205v-205zm205-615h204v205H410V614z"/><glyph unicode="3" d="M0 205h205V0h409v205H205v205H0V205zm0 819h205v205H0v-205zm205 205h409V819h205v410H614v205H205v-205zm205-615h204V205h205v409H614v205H410V614z"/><glyph unicode="4" d="M0 614h410V0h204v614h205v205H614v410H410V819H205v615H0V614z"/><glyph unicode="5" d="M0 205h205V0h409v205H205v205H0V205zm0 409h614V205h205v409H614v205H205v410h614v205H0V614z"/><glyph unicode="6" d="M0 205h205V0h409v205H205v409h409V205h205v409H614v205H205v410H0V205zm205 1024h409v-205h205v205H614v205H205v-205z"/><glyph unicode="7" d="M0 1229h614v-205h205v410H0v-205zM205 0h205v819H205V0zm205 819h204v205H410V819z"/><glyph unicode="8" d="M0 205h205V0h409v205H205v409H0V205zm0 614h205V614h409V205h205v409H614v205H205v410H0V819zm205 410h409V819h205v410H614v205H205v-205z"/><glyph unicode="9" d="M0 205h205V0h409v205H205v205H0V205zm0 614h205V614h409V205h205v1024H614v205H205v-205h409V819H205v410H0V819z"/><glyph unicode=":" horiz-adv-x="409" d="M0 0h205v205H0V0zm0 410h205v204H0V410z"/><glyph unicode=";" horiz-adv-x="409" d="M0-205h205v410H0v-410zm0 615h205v204H0V410z"/><glyph unicode=";" horiz-adv-x="409" d="M0-205h205v410H0v-410zm0 615h205v204H0V410z"/><glyph unicode="&lt;" d="M0 614v205h205v205h205v205h204v205h205v-205H614v-205H410V819H205V614H0zm205-204v204h205V410H205zm205-205v205h204V205H410zM614 0v205h205V0H614z"/><glyph unicode="=" horiz-adv-x="614" d="M0 410h410v204H0V410zm0 409h410v205H0V819z"/><glyph unicode="&gt;" d="M0 0h205v205H0V0zm0 1229h205v-205h205V819h204V614h205v205H614v205H410v205H205v205H0v-205zM205 205h205v205H205V205zm205 205h204v204H410V410z"/><glyph unicode="?" d="M0 1024h205v205H0v-205zM205 0h205v205H205V0zm0 410h205v204H205V410zm0 819h409V819H410V614h223v205h186v410H614v205H205v-205z"/><glyph unicode="@" horiz-adv-x="1228" d="M0 205h205v1024H0V205zM205 0h614v205H205V0zm0 1229h614v-205H410V410h614v819H819v205H205v-205zm409-615v205h205V614H614z"/><glyph unicode="A" d="M0 0h205v410h409V0h205v1229H614v205H205v-205h409V614H205v615H0V0z"/><glyph unicode="B" d="M0 0h614v205h205v409H614v205H205v410h409V819h205v410H614v205H0V0zm205 205v409h409V205H205z"/><glyph unicode="C" d="M0 205h205V0h409v205H205v1024H0V205zm205 1024h409v-205h205v205H614v205H205v-205zM614 205h205v205H614V205z"/><glyph unicode="D" d="M0 0h614v205h205v1024H614v205H0V0zm205 205v1024h409V205H205z"/><glyph unicode="E" d="M0 0h819v205H205v409h409v205H205v410h614v205H0V0z"/><glyph unicode="F" d="M0 0h205v614h409v205H205v410h614v205H0V0z"/><glyph unicode="G" d="M0 205h205V0h409v205H205v1024H0V205zm205 1024h409v-205h205v205H614v205H205v-205zm205-819h204V205h205v409H410V410z"/><glyph unicode="H" d="M0 0h205v614h409V0h205v1434H614V819H205v615H0V0z"/><glyph unicode="I" horiz-adv-x="819" d="M0 0h614v205H410v1024h204v205H0v-205h205V205H0V0z"/><glyph unicode="J" d="M0 205h205V0h205v205H205v205H0V205zm205 1024h205V205h204v1024h205v205H205v-205z"/><glyph unicode="K" d="M0 0h205v410h205V205h204V0h205v205H614v205H410v204H205v205h205v205H205v410H0V0zm410 1024h204v184H410v-184zm204 205h205v205H614v-205z"/><glyph unicode="L" d="M0 0h819v205H205v1229H0V0z"/><glyph unicode="M" horiz-adv-x="1228" d="M0 0h205v1024h205V819h204v205H410v205H205v205H0V0zm614 1024h205V0h205v1434H819v-205H614v-205z"/><glyph unicode="N" d="M0 0h205v1024h205V819h204V0h205v1434H614v-410H410v205H205v205H0V0z"/><glyph unicode="O" d="M0 205h205V0h409v205H205v1024H0V205zm205 1024h409V205h205v1024H614v205H205v-205z"/><glyph unicode="P" d="M0 0h205v614h409v205h205v410H614v205H0V0zm205 819v410h409V819H205z"/><glyph unicode="Q" horiz-adv-x="1228" d="M0 205h205V0h409v205H205v1024H0V205zm205 1024h409V614H410V410h204V205h205V0h205v205H819v1024H614v205H205v-205z"/><glyph unicode="R" d="M0 0h205v614h409V0h205v614H614v205h205v410H614v205H0V0zm205 819v410h409V819H205z"/><glyph unicode="S" d="M0 205h205V0h409v205H205v205H0V205zm0 614h205V614h409V205h205v409H614v205H205v410H0V819zm205 410h409v-205h205v205H614v205H205v-205z"/><glyph unicode="T" horiz-adv-x="1228" d="M0 1229h410V0h204v1229h410v205H0v-205z"/><glyph unicode="U" d="M0 205h205V0h409v205H205v1229H0V205zm614 0h205v1229H614V205z"/><glyph unicode="V" d="M0 205h205V0h205v205H205v1229H0V205zm410 0h204v205H410V205zm204 205h205v1024H614V410z"/><glyph unicode="W" horiz-adv-x="1228" d="M0 205h205V0h205v205H205v1229H0V205zm410 0h204V0h205v205H614v205H410V205zm409 0h205v1229H819V205z"/><glyph unicode="X" d="M0 0h205v614H0V0zm0 819h205V614h409V0h205v614H614v205H205v615H0V819zm614 0h205v615H614V819z"/><glyph unicode="Y" horiz-adv-x="1228" d="M0 1024h205V819h205V0h204v819H410v205H205v410H0v-410zm614-205h205v205H614V819zm205 205h205v410H819v-410z"/><glyph unicode="Z" d="M0 0h819v205H205v409H0V0zm0 1229h614V819h205v615H0v-205zm205-615h409v205H205V614z"/><glyph unicode="[" horiz-adv-x="614" d="M0 0h410v205H205v1024h205v205H0V0z"/><glyph unicode="\" horiz-adv-x="819" d="M0 1024v410h205v-410H0zm205-614v614h205V410H205zM410 0v410h204V0H410z"/><glyph unicode="]" horiz-adv-x="614" d="M0 0v205h205v1024H0v205h410V0H0z"/><glyph unicode="^" d="M0 1434h205v204H0v-204zm205 204h409v-204h205v204H614v205H205v-205z"/><glyph unicode="_" d="M0 0h1024v205H0V0z"/><glyph unicode="`" d="M205 1638h205v-204h204v204H410v205H205v-205z"/><glyph unicode="a" d="M0 205h205V0h614v819H614v205H205V819h409V614H205V410h409V205H205v205H0V205z"/><glyph unicode="b" d="M0 0h614v205h205v614H614v205H205v410H0V0zm205 205v614h409V205H205z"/><glyph unicode="c" d="M0 205h205V0h409v205H205v614H0V205zm205 614h409V614h205v205H614v205H205V819zm409-614h205v205H614V205z"/><glyph unicode="d" d="M0 205v614h205v205h409v410h205V0H205v205H0zm205 0h409v614H205V205z"/><glyph unicode="e" d="M0 205h205V0h409v205H205v205h614v409H614v205H205V819h409V614H205v205H0V205z"/><glyph unicode="f" horiz-adv-x="817" d="M0 819h205V0h205v819h204v205H410v205H205v-205H0V819zm410 410h204v205H410v-205z"/><glyph unicode="g" d="M0 205h205V0h409v-205h205V819H614v205H205V819h409V205H205v614H0V205zm205-410v-205h409v205H205z"/><glyph unicode="h" d="M0 0h205v819h409V0h205v819H614v205H205v410H0V0z"/><glyph unicode="i" horiz-adv-x="409" d="M0 0h205v1024H0V0zm0 1229h205v205H0v-205z"/><glyph unicode="j" horiz-adv-x="409" d="M-205-205v-205H0v205h-205zm205 0h205v1229H0V-205zm0 1434h205v205H0v-205z"/><glyph unicode="k" d="M0 0h205v410h205V205h204V0h205v205H614v205H410v204H205v820H0V0zm410 614h204v205H410V614zm204 205h205v205H614V819z"/><glyph unicode="l" horiz-adv-x="614" d="M0 205h205V0h205v205H205v1229H0V205z"/><glyph unicode="m" horiz-adv-x="1228" d="M0 0h205v819h205V0h204v819H410v205H0V0zm614 819h205v205H614V819zM819 0h205v795H819V0z"/><glyph unicode="n" d="M0 0h205v819h409V0h205v819H614v205H0V0z"/><glyph unicode="o" d="M0 205h205V0h409v205H205v614H0V205zm205 614h409V205h205v614H614v205H205V819z"/><glyph unicode="p" d="M0-410h205V0h409v205h205v614H614v205H0V-410zm205 615v614h409V205H205z"/><glyph unicode="q" d="M0 205v614h205v205h614V-410H614V0H205v205H0zm205 0h409v614H205V205z"/><glyph unicode="r" d="M0 819h205V0h205v819H205v205H0V819zm410 0h204V614h205v410H410V819z"/><glyph unicode="s" d="M0 0h614v205H0V0zm0 614h205V410h409V205h205v205H614v204H205v205H0V614zm205 205h614v205H205V819z"/><glyph unicode="t" horiz-adv-x="819" d="M0 819h205V205h205V0h204v205H410v614h204v205H410v410H205v-410H0V819z"/><glyph unicode="u" d="M0 205h205V0h409v205H205v819H0V205zm614 0h205v819H614V205z"/><glyph unicode="v" d="M0 205h205V0h205v205H205v819H0V205zm410 0h204v205H410V205zm204 205h205v614H614V410z"/><glyph unicode="w" horiz-adv-x="1228" d="M0 205h205V0h205v205H205v819H0V205zm410 0h204V0h205v205H614v205H410V205zm409 0h205v819H819V205z"/><glyph unicode="x" d="M0 0h205v410H0V0zm0 614h205V410h409V0h205v410H614v204H205v410H0V614zm614 0h205v410H614V614z"/><glyph unicode="y" horiz-adv-x="1228" d="M0 205h205V0h409v-205h205v1229H614V205H205v819H0V205zm205-410v-205h409v205H205z"/><glyph unicode="z" d="M0 0h819v205H205v205H0V0zm0 819h614V614h205v410H0V819zm205-409h409v204H205V410z"/><glyph unicode="|" horiz-adv-x="409" d="M0 0h205v1434H0V0z"/><glyph unicode="§" d="M0 0h614v205H0V0zm0 614h205V410h409V205h205v614H614v205H205v205H0V614zm205 0v205h409V614H205zm0 615h614v205H205v-205z"/><glyph unicode="ª" d="M0 205h205V0h614v819H614v205H205V819h409V614H205V410h409V205H205v205H0V205z"/><glyph unicode="­" horiz-adv-x="614" d="M0 614h410v205H0V614z"/><glyph unicode="²" d="M0 0h819v205H205v205H0V0zm0 1024h205v205H0v-205zm205-614h205v204H205V410zm0 819h409V819h205v410H614v205H205v-205zm205-615h204v205H410V614z"/><glyph unicode="³" d="M0 205h205V0h409v205H205v205H0V205zm0 819h205v205H0v-205zm205 205h409V819h205v410H614v205H205v-205zm205-615h204V205h205v409H614v205H410V614z"/><glyph unicode="´" d="M205 1434h205v204H205v-204zm205 204h204v205H410v-205z"/><glyph unicode="¸" d="M205-205v-205h409V0H410v-205H205z"/><glyph unicode="¹" horiz-adv-x="614" d="M0 1024h205V0h205v1434H205v-205H0v-205z"/><glyph unicode="º" d="M0 205h205V0h409v205H205v614H0V205zm205 614h409V205h205v614H614v205H205V819z"/><glyph unicode="À" d="M103 1761h205v-204h204v204H308v205H103v-205zM0 0h205v410h409V0h205v1229H614v205H205v-205h409V614H205v615H0V0z"/><glyph unicode="Á" d="M307 1557h205v204H307v-204zm205 204h204v205H512v-205zM0 0h205v410h409V0h205v1229H614v205H205v-205h409V614H205v615H0V0z"/><glyph unicode="Â" d="M0 1557h205v204H0v-204zm205 204h409v-204h205v204H614v205H205v-205zM0 0h205v410h409V0h205v1229H614v205H205v-205h409V614H205v615H0V0z"/><glyph unicode="Ä" d="M0 0h205v410h409V0h205v1229H614v205H205v-205h409V614H205v615H0V0zm0 1638h205v205H0v-205zm614 0h205v205H614v-205z"/><glyph unicode="Ç" d="M103-191v-205h409V14H308v-205H103zM0 205h205V0h409v205H205v1024H0V205zm205 1024h409v-205h205v205H614v205H205v-205zM614 205h205v205H614V205z"/><glyph unicode="È" d="M103 1761h205v-204h204v204H308v205H103v-205zM0 0h819v205H205v409h409v205H205v410h614v205H0V0z"/><glyph unicode="É" d="M307 1557h205v204H307v-204zm205 204h204v205H512v-205zM0 0h819v205H205v409h409v205H205v410h614v205H0V0z"/><glyph unicode="Ê" d="M0 1557h205v204H0v-204zm205 204h409v-204h205v204H614v205H205v-205zM0 0h819v205H205v409h409v205H205v410h614v205H0V0z"/><glyph unicode="Ì" horiz-adv-x="819" d="M0 1761h205v-204h204v204H205v205H0v-205zM0 0h614v205H410v1024h204v205H0v-205h205V205H0V0z"/><glyph unicode="Í" horiz-adv-x="819" d="M205 1557h205v204H205v-204zm205 204h204v205H410v-205zM0 0h614v205H410v1024h204v205H0v-205h205V205H0V0z"/><glyph unicode="Î" horiz-adv-x="819" d="M-102 1557h205v204h-205v-204zm205 204h409v-204h205v204H512v205H103v-205zM0 0h614v205H410v1024h204v205H0v-205h205V205H0V0z"/><glyph unicode="Ò" d="M103 1761h205v-204h204v204H308v205H103v-205zM0 205h205V0h409v205H205v1024H0V205zm205 1024h409V205h205v1024H614v205H205v-205z"/><glyph unicode="Ó" d="M307 1557h205v204H307v-204zm205 204h204v205H512v-205zM0 205h205V0h409v205H205v1024H0V205zm205 1024h409V205h205v1024H614v205H205v-205z"/><glyph unicode="Ô" d="M0 1557h205v204H0v-204zm205 204h409v-204h205v204H614v205H205v-205zM0 205h205V0h409v205H205v1024H0V205zm205 1024h409V205h205v1024H614v205H205v-205z"/><glyph unicode="Ö" d="M0 205h205V0h409v205H205v1024H0V205zm0 1433h205v205H0v-205zm205-409h409V205h205v1024H614v205H205v-205zm409 409h205v205H614v-205z"/><glyph unicode="Ù" d="M103 1761h205v-204h204v204H308v205H103v-205zM0 205h205V0h409v205H205v1229H0V205zm614 0h205v1229H614V205z"/><glyph unicode="Ú" d="M307 1557h205v204H307v-204zm205 204h204v205H512v-205zM0 205h205V0h409v205H205v1229H0V205zm614 0h205v1229H614V205z"/><glyph unicode="Û" d="M0 1557h205v204H0v-204zm205 204h409v-204h205v204H614v205H205v-205zM0 205h205V0h409v205H205v1229H0V205zm614 0h205v1229H614V205z"/><glyph unicode="Ü" d="M0 205h205V0h409v205H205v1229H0V205zm0 1433h205v205H0v-205zM614 205h205v1229H614V205zm0 1433h205v205H614v-205z"/><glyph unicode="Ý" horiz-adv-x="1228" d="M410 1557h205v204H410v-204zm205 204h204v205H615v-205zM0 1024h205V819h205V0h204v819H410v205H205v410H0v-410zm614-205h205v205H614V819zm205 205h205v410H819v-410z"/><glyph unicode="ß" d="M0-205h205v1434H0V-205zm205 1434h409v205H205v-205zM410 0h204v205H410V0zm0 614h204v205H410V614zm204-409h205v409H614V205zm0 614h205v410H614V819z"/><glyph unicode="à" d="M103 1351h205v-204h204v204H308v205H103v-205zM0 205h205V0h614v819H614v205H205V819h409V614H205V410h409V205H205v205H0V205z"/><glyph unicode="á" d="M307 1147h205v204H307v-204zm205 204h204v205H512v-205zM0 205h205V0h614v819H614v205H205V819h409V614H205V410h409V205H205v205H0V205z"/><glyph unicode="â" d="M0 1147h205v204H0v-204zm205 204h409v-204h205v204H614v205H205v-205zM0 205h205V0h614v819H614v205H205V819h409V614H205V410h409V205H205v205H0V205z"/><glyph unicode="ä" d="M0 205h205v205H0V205zm0 1024h205v205H0v-205zM205 0h614v819H614v205H205V819h409V614H205V410h409V205H205V0zm409 1229h205v205H614v-205z"/><glyph unicode="ç" d="M103-191v-205h409V14H308v-205H103zM0 205h205V0h409v205H205v614H0V205zm205 614h409V614h205v205H614v205H205V819zm409-614h205v205H614V205z"/><glyph unicode="è" d="M103 1351h205v-204h204v204H308v205H103v-205zM0 205h205V0h409v205H205v205h614v409H614v205H205V819h409V614H205v205H0V205z"/><glyph unicode="é" d="M307 1147h205v204H307v-204zm205 204h204v205H512v-205zM0 205h205V0h409v205H205v205h614v409H614v205H205V819h409V614H205v205H0V205z"/><glyph unicode="ê" d="M0 1147h205v204H0v-204zm205 204h409v-204h205v204H614v205H205v-205zM0 205h205V0h409v205H205v205h614v409H614v205H205V819h409V614H205v205H0V205z"/><glyph unicode="ì" horiz-adv-x="409" d="M-205 1761H0v-204h204v204H0v205h-205v-205zM0 0h205v1024H0V0zm0 1229h205v205H0v-205z"/><glyph unicode="í" horiz-adv-x="409" d="M0 1557h205v204H0v-204zm205 204h204v205H205v-205zM0 0h205v1024H0V0zm0 1229h205v205H0v-205z"/><glyph unicode="î" horiz-adv-x="409" d="M-307 1557h205v204h-205v-204zm205 204h409v-204h205v204H307v205h-409v-205zM0 0h205v1024H0V0zm0 1229h205v205H0v-205z"/><glyph unicode="ò" d="M103 1351h205v-204h204v204H308v205H103v-205zM0 205h205V0h409v205H205v614H0V205zm205 614h409V205h205v614H614v205H205V819z"/><glyph unicode="ó" d="M307 1147h205v204H307v-204zm205 204h204v205H512v-205zM0 205h205V0h409v205H205v614H0V205zm205 614h409V205h205v614H614v205H205V819z"/><glyph unicode="ô" d="M0 1147h205v204H0v-204zm205 204h409v-204h205v204H614v205H205v-205zM0 205h205V0h409v205H205v614H0V205zm205 614h409V205h205v614H614v205H205V819z"/><glyph unicode="ö" d="M0 205h205V0h409v205H205v614H0V205zm0 1024h205v205H0v-205zm205-410h409V205h205v614H614v205H205V819zm409 410h205v205H614v-205z"/><glyph unicode="ù" d="M103 1351h205v-204h204v204H308v205H103v-205zM0 205h205V0h409v205H205v819H0V205zm614 0h205v819H614V205z"/><glyph unicode="ú" d="M307 1147h205v204H307v-204zm205 204h204v205H512v-205zM0 205h205V0h409v205H205v819H0V205zm614 0h205v819H614V205z"/><glyph unicode="û" d="M0 1147h205v204H0v-204zm205 204h409v-204h205v204H614v205H205v-205zM0 205h205V0h409v205H205v819H0V205zm614 0h205v819H614V205z"/><glyph unicode="ü" d="M0 205h205V0h409v205H205v819H0V205zm0 1024h205v205H0v-205zM614 205h205v819H614V205zm0 1024h205v205H614v-205z"/><glyph unicode="ý" horiz-adv-x="1228" d="M307 1147h205v204H307v-204zm205 204h204v205H512v-205zM0 205h205V0h409v-205h205v1229H614V205H205v819H0V205zm205-410v-205h409v205H205z"/><glyph unicode="Œ" horiz-adv-x="2048" d="M1024 0h819v205h-614v409h409v205h-409v410h614v205h-819V0zM0 205h205V0h409v205H205v1024H0V205zm205 1024h409V205h205v1024H614v205H205v-205z"/><glyph unicode="œ" horiz-adv-x="2048" d="M1024 205h205V0h409v205h-409v205h614v409h-205v205h-409V819h409V614h-409v205h-205V205zM0 205h205V0h409v205H205v614H0V205zm205 614h409V205h205v614H614v205H205V819z"/><glyph unicode="ˆ" d="M0 1434h205v204H0v-204zm205 204h409v-204h205v204H614v205H205v-205z"/><glyph horiz-adv-x="983"/><glyph horiz-adv-x="1966"/><glyph horiz-adv-x="983"/><glyph horiz-adv-x="1966"/><glyph horiz-adv-x="655"/><glyph horiz-adv-x="491"/><glyph horiz-adv-x="327"/><glyph horiz-adv-x="327"/><glyph horiz-adv-x="245"/><glyph horiz-adv-x="393"/><glyph horiz-adv-x="108"/><glyph unicode="‐" horiz-adv-x="614" d="M0 614h410v205H0V614z"/><glyph unicode="‑" horiz-adv-x="614" d="M0 614h410v205H0V614z"/><glyph unicode="‒" horiz-adv-x="614" d="M0 614h410v205H0V614z"/><glyph unicode="–" d="M205 512v205h614V512H205z"/><glyph unicode="—" horiz-adv-x="2048" d="M205 512v205h1638V512H205z"/><glyph unicode="‘" d="M205 1638h205v-204h204v204H410v205H205v-205z"/><glyph unicode="’" horiz-adv-x="409" d="M0 1024v410h205v-410H0z"/><glyph unicode="“" horiz-adv-x="819" d="M0 1024h205v410H0v-410zm410 0h204v410H410v-410z"/><glyph unicode="”" horiz-adv-x="819" d="M0 1024h205v410H0v-410zm410 0h204v410H410v-410z"/><glyph unicode="…" horiz-adv-x="1228" d="M819 0h205v205H819V0zM410 0h205v205H410V0zM0 0h205v205H0V0z"/><glyph horiz-adv-x="393"/><glyph unicode="‹" d="M0 614v205h205v205h205v205h204v205h205v-205H614v-205H410V819H205V614H0zm205-204v204h205V410H205zm205-205v205h204V205H410zM614 0v205h205V0H614z"/><glyph unicode="›" d="M0 0h205v205H0V0zm0 1229h205v-205h205V819h204V614h205v205H614v205H410v205H205v205H0v-205zM205 205h205v205H205V205zm205 205h204v204H410V410z"/><glyph horiz-adv-x="491"/><glyph unicode="™" horiz-adv-x="2457" d="M1229 0h205v1024h205V819h204v205h-204v205h-205v205h-205V0zm614 1024h205V0h205v1434h-205v-205h-205v-205zM0 1229h410V0h204v1229h410v205H0v-205z"/><glyph unicode="" horiz-adv-x="1025" d="M0 1025h1025V0H0v1025z"/><glyph unicode="ﬁ" horiz-adv-x="1226" d="M817 0h205v1024H817V0zm0 1229h205v205H817v-205zM0 819h205V0h205v819h204v205H410v205H205v-205H0V819zm410 410h204v205H410v-205z"/><glyph unicode="ﬂ" horiz-adv-x="1431" d="M817 205h205V0h205v205h-205v1229H817V205zM0 819h205V0h205v819h204v205H410v205H205v-205H0V819zm410 410h204v205H410v-205z"/><glyph unicode="ﬃ" horiz-adv-x="2043" d="M1634 0h205v1024h-205V0zm0 1229h205v205h-205v-205zM817 819h205V0h205v819h204v205h-204v205h-205v-205H817V819zm410 410h204v205h-204v-205zM0 819h205V0h205v819h204v205H410v205H205v-205H0V819zm410 410h204v205H410v-205z"/><glyph unicode="ﬄ" horiz-adv-x="2248" d="M1634 205h205V0h205v205h-205v1229h-205V205zM817 819h205V0h205v819h204v205h-204v205h-205v-205H817V819zm410 410h204v205h-204v-205zM0 819h205V0h205v819h204v205H410v205H205v-205H0V819zm410 410h204v205H410v-205z"/></font>
</defs>
</svg>
